<svg width="138" height="52" viewBox="0 0 138 52" fill="none" xmlns="http://www.w3.org/2000/svg">
<path d="M50.7124 5.70218C50.1395 5.70218 49.659 5.50814 49.2709 5.12004C48.8828 4.73195 48.6888 4.25145 48.6888 3.67855C48.6888 3.10564 48.8828 2.62515 49.2709 2.23705C49.659 1.84896 50.1395 1.65491 50.7124 1.65491C51.2668 1.65491 51.7381 1.84896 52.1262 2.23705C52.5143 2.62515 52.7083 3.10564 52.7083 3.67855C52.7083 4.25145 52.5143 4.73195 52.1262 5.12004C51.7381 5.50814 51.2668 5.70218 50.7124 5.70218ZM52.2648 7.72582V23.0001H49.1046V7.72582H52.2648ZM74.9038 7.47633C76.105 7.47633 77.1769 7.72582 78.1194 8.2248C79.0804 8.72378 79.8289 9.46301 80.3648 10.4425C80.9193 11.422 81.1965 12.6047 81.1965 13.9908V23.0001H78.064V14.462C78.064 13.0945 77.7221 12.0503 77.0383 11.3296C76.3545 10.5903 75.4213 10.2207 74.2385 10.2207C73.0557 10.2207 72.1132 10.5903 71.4109 11.3296C70.7272 12.0503 70.3853 13.0945 70.3853 14.462V23.0001H67.2528V14.462C67.2528 13.0945 66.9109 12.0503 66.2271 11.3296C65.5433 10.5903 64.61 10.2207 63.4273 10.2207C62.2445 10.2207 61.302 10.5903 60.5997 11.3296C59.9159 12.0503 59.5741 13.0945 59.5741 14.462V23.0001H56.4139V7.72582H59.5741V9.47225C60.0915 8.8439 60.7476 8.35416 61.5422 8.00303C62.3369 7.6519 63.187 7.47633 64.0926 7.47633C65.3123 7.47633 66.4027 7.73506 67.3637 8.25252C68.3247 8.76998 69.0639 9.51845 69.5814 10.4979C70.0434 9.57389 70.7641 8.8439 71.7436 8.30796C72.7231 7.75354 73.7765 7.47633 74.9038 7.47633ZM88.378 9.99895C88.9139 9.25972 89.6439 8.6591 90.5679 8.19708C91.5104 7.71658 92.5546 7.47633 93.7004 7.47633C95.0495 7.47633 96.2692 7.79974 97.3596 8.44657C98.4499 9.09339 99.3093 10.0174 99.9376 11.2187C100.566 12.4014 100.88 13.7598 100.88 15.2937C100.88 16.8276 100.566 18.2044 99.9376 19.4241C99.3093 20.6254 98.4407 21.5679 97.3319 22.2517C96.2415 22.917 95.031 23.2496 93.7004 23.2496C92.5176 23.2496 91.4642 23.0186 90.5402 22.5566C89.6347 22.0946 88.9139 21.5032 88.378 20.7824V23.0001H85.2178V2.48654H88.378V9.99895ZM97.6645 15.2937C97.6645 14.2403 97.4427 13.3347 96.9992 12.577C96.5742 11.8008 96.0013 11.2187 95.2805 10.8306C94.5782 10.424 93.8205 10.2207 93.0074 10.2207C92.2127 10.2207 91.455 10.424 90.7343 10.8306C90.032 11.2372 89.4591 11.8285 89.0155 12.6047C88.5905 13.3809 88.378 14.2957 88.378 15.3491C88.378 16.4025 88.5905 17.3265 89.0155 18.1212C89.4591 18.8974 90.032 19.4888 90.7343 19.8954C91.455 20.3019 92.2127 20.5052 93.0074 20.5052C93.8205 20.5052 94.5782 20.3019 95.2805 19.8954C96.0013 19.4703 96.5742 18.8604 96.9992 18.0658C97.4427 17.2711 97.6645 16.3471 97.6645 15.2937ZM117.838 7.72582V23.0001H114.678V21.1983C114.179 21.8266 113.523 22.3256 112.71 22.6952C111.915 23.0463 111.065 23.2219 110.159 23.2219C108.958 23.2219 107.877 22.9724 106.916 22.4734C105.973 21.9744 105.225 21.2352 104.671 20.2557C104.135 19.2763 103.867 18.0935 103.867 16.7074V7.72582H106.999V16.2362C106.999 17.6038 107.341 18.6572 108.025 19.3964C108.709 20.1171 109.642 20.4775 110.825 20.4775C112.007 20.4775 112.941 20.1171 113.624 19.3964C114.327 18.6572 114.678 17.6038 114.678 16.2362V7.72582H117.838ZM127.552 23.2496C126.351 23.2496 125.27 23.0371 124.309 22.612C123.366 22.1685 122.618 21.5771 122.063 20.8379C121.509 20.0802 121.213 19.2393 121.176 18.3153H124.447C124.503 18.9621 124.808 19.5073 125.362 19.9508C125.935 20.3759 126.646 20.5884 127.496 20.5884C128.384 20.5884 129.067 20.4221 129.548 20.0894C130.047 19.7383 130.296 19.2947 130.296 18.7588C130.296 18.1859 130.019 17.7608 129.465 17.4836C128.929 17.2064 128.069 16.9015 126.887 16.5688C125.741 16.2547 124.808 15.9497 124.087 15.654C123.366 15.3584 122.738 14.9056 122.202 14.2957C121.684 13.6858 121.426 12.8819 121.426 11.884C121.426 11.0708 121.666 10.3316 122.146 9.66629C122.627 8.98251 123.311 8.44657 124.198 8.05847C125.103 7.67038 126.138 7.47633 127.302 7.47633C129.04 7.47633 130.435 7.91987 131.488 8.80694C132.56 9.67553 133.133 10.8675 133.207 12.383H130.047C129.991 11.6992 129.714 11.154 129.215 10.7474C128.716 10.3408 128.042 10.1376 127.192 10.1376C126.36 10.1376 125.722 10.2946 125.279 10.6088C124.835 10.923 124.613 11.3388 124.613 11.8563C124.613 12.2628 124.761 12.6047 125.057 12.8819C125.353 13.1591 125.713 13.3809 126.138 13.5472C126.563 13.6951 127.192 13.8891 128.023 14.1294C129.132 14.4251 130.038 14.73 130.74 15.0442C131.461 15.3399 132.08 15.7834 132.597 16.3748C133.115 16.9662 133.383 17.7516 133.401 18.7311C133.401 19.5997 133.161 20.3759 132.68 21.0596C132.2 21.7434 131.516 22.2794 130.629 22.6675C129.76 23.0556 128.735 23.2496 127.552 23.2496ZM63.1037 40.9887C63.1037 41.5616 63.0668 42.0791 62.9928 42.5411H51.3223C51.4147 43.7608 51.8675 44.7403 52.6806 45.4795C53.4938 46.2188 54.4917 46.5884 55.6745 46.5884C57.3747 46.5884 58.576 45.8769 59.2782 44.4539H62.6879C62.2259 45.8584 61.385 47.0134 60.1653 47.919C58.964 48.8061 57.4671 49.2496 55.6745 49.2496C54.2145 49.2496 52.9024 48.9262 51.7381 48.2794C50.5923 47.6141 49.6867 46.69 49.0214 45.5073C48.3746 44.306 48.0512 42.92 48.0512 41.3491C48.0512 39.7783 48.3654 38.4014 48.9937 37.2187C49.6405 36.0174 50.5368 35.0934 51.6827 34.4466C52.8469 33.7997 54.1775 33.4763 55.6745 33.4763C57.116 33.4763 58.4004 33.7905 59.5277 34.4188C60.655 35.0472 61.5329 35.9343 62.1612 37.0801C62.7896 38.2074 63.1037 39.5103 63.1037 40.9887ZM59.8049 39.9908C59.7864 38.8265 59.3706 37.8932 58.5575 37.191C57.7443 36.4887 56.7371 36.1376 55.5359 36.1376C54.4455 36.1376 53.5122 36.4887 52.7361 37.191C51.9599 37.8747 51.4978 38.808 51.35 39.9908H59.8049ZM69.3739 35.9989C69.9098 35.2597 70.6398 34.6591 71.5638 34.1971C72.5064 33.7166 73.5505 33.4763 74.6963 33.4763C76.0454 33.4763 77.2651 33.7997 78.3555 34.4466C79.4459 35.0934 80.3052 36.0174 80.9336 37.2187C81.5619 38.4014 81.8761 39.7598 81.8761 41.2937C81.8761 42.8276 81.5619 44.2044 80.9336 45.4241C80.3052 46.6254 79.4366 47.5679 78.3278 48.2517C77.2374 48.917 76.0269 49.2496 74.6963 49.2496C73.5136 49.2496 72.4602 49.0186 71.5361 48.5566C70.6306 48.0946 69.9098 47.5032 69.3739 46.7824V49.0001H66.2137V28.4865H69.3739V35.9989ZM78.6604 41.2937C78.6604 40.2403 78.4387 39.3347 77.9951 38.577C77.5701 37.8008 76.9972 37.2187 76.2764 36.8306C75.5742 36.424 74.8164 36.2207 74.0033 36.2207C73.2086 36.2207 72.4509 36.424 71.7302 36.8306C71.0279 37.2372 70.455 37.8285 70.0115 38.6047C69.5864 39.3809 69.3739 40.2957 69.3739 41.3491C69.3739 42.4025 69.5864 43.3265 70.0115 44.1212C70.455 44.8974 71.0279 45.4888 71.7302 45.8954C72.4509 46.3019 73.2086 46.5052 74.0033 46.5052C74.8164 46.5052 75.5742 46.3019 76.2764 45.8954C76.9972 45.4703 77.5701 44.8604 77.9951 44.0658C78.4387 43.2711 78.6604 42.3471 78.6604 41.2937ZM98.834 33.7258V49.0001H95.6738V47.1983C95.1748 47.8266 94.5188 48.3256 93.7056 48.6952C92.9109 49.0463 92.0608 49.2219 91.1553 49.2219C89.954 49.2219 88.8729 48.9724 87.9119 48.4734C86.9694 47.9744 86.2209 47.2352 85.6665 46.2557C85.1306 45.2763 84.8626 44.0935 84.8626 42.7074V33.7258H87.9951V42.2362C87.9951 43.6038 88.337 44.6572 89.0207 45.3964C89.7045 46.1171 90.6378 46.4775 91.8206 46.4775C93.0033 46.4775 93.9366 46.1171 94.6204 45.3964C95.3227 44.6572 95.6738 43.6038 95.6738 42.2362V33.7258H98.834ZM106.164 28.4865V49.0001H103.004V28.4865H106.164ZM109.259 41.2937C109.259 39.7598 109.574 38.4014 110.202 37.2187C110.849 36.0359 111.717 35.1211 112.808 34.4743C113.917 33.809 115.136 33.4763 116.467 33.4763C117.668 33.4763 118.712 33.7166 119.599 34.1971C120.505 34.6591 121.226 35.2412 121.762 35.9435V33.7258H124.95V49.0001H121.762V46.727C121.226 47.4477 120.496 48.0484 119.572 48.5289C118.648 49.0094 117.594 49.2496 116.412 49.2496C115.099 49.2496 113.898 48.917 112.808 48.2517C111.717 47.5679 110.849 46.6254 110.202 45.4241C109.574 44.2044 109.259 42.8276 109.259 41.2937ZM121.762 41.3491C121.762 40.2957 121.54 39.3809 121.096 38.6047C120.671 37.8285 120.108 37.2372 119.405 36.8306C118.703 36.424 117.945 36.2207 117.132 36.2207C116.319 36.2207 115.561 36.424 114.859 36.8306C114.157 37.2187 113.584 37.8008 113.14 38.577C112.715 39.3347 112.503 40.2403 112.503 41.2937C112.503 42.3471 112.715 43.2711 113.14 44.0658C113.584 44.8604 114.157 45.4703 114.859 45.8954C115.58 46.3019 116.338 46.5052 117.132 46.5052C117.945 46.5052 118.703 46.3019 119.405 45.8954C120.108 45.4888 120.671 44.8974 121.096 44.1212C121.54 43.3265 121.762 42.4025 121.762 41.3491Z" fill="#E5B0ED"/>
<path d="M44.8301 48.4939H33.7201L15.1383 20.3614V48.4939H4.02822V2.8841H15.1383L33.7201 31.1466V2.8841H44.8301V48.4939Z" fill="#AD6DB6"/>
</svg>
